<mxfile host="65bd71144e">
    <diagram id="system-context" name="System Context">
        <mxGraphModel dx="1054" dy="866" grid="1" gridSize="10" guides="1" tooltips="1" connect="1" arrows="1" fold="1" page="1" pageScale="1" pageWidth="827" pageHeight="1169" math="0" shadow="0">
            <root>
                <mxCell id="0"/>
                <mxCell id="1" parent="0"/>
                <mxCell id="2" value="Care Plus Healthcare Management System&#xa;&#xa;Core Components:&#xa;- Authentication System&#xa;- User Management&#xa;- Medication Management&#xa;- Diagnosis System&#xa;- Health Monitoring&#xa;- Reporting System&#xa;- Notification Handler" style="ellipse;whiteSpace=wrap;html=1;aspect=fixed;fillColor=#dae8fc;strokeColor=#6c8ebf;fontSize=14;align=left;spacingLeft=10" parent="1" vertex="1">
                    <mxGeometry x="400" y="240" width="320" height="320" as="geometry"/>
                </mxCell>
                <mxCell id="3" value="Patient&#xa;&#xa;Actions:&#xa;- Medication Schedule Management&#xa;- Health Vitals Submission&#xa;- Side Effects Reporting&#xa;- Appointment Management&#xa;- Medical History Access" style="rounded=1;whiteSpace=wrap;html=1;fillColor=#d5e8d4;strokeColor=#82b366;fontSize=12;align=left;spacingLeft=5" parent="1" vertex="1">
                    <mxGeometry x="120" y="200" width="200" height="140" as="geometry"/>
                </mxCell>
                <mxCell id="4" value="Doctor&#xa;&#xa;Functions:&#xa;- Diagnosis Creation&#xa;- Medication Prescription&#xa;- Patient Monitoring&#xa;- Report Generation&#xa;- Treatment Planning" style="rounded=1;whiteSpace=wrap;html=1;fillColor=#d5e8d4;strokeColor=#82b366;fontSize=12;align=left;spacingLeft=5" parent="1" vertex="1">
                    <mxGeometry x="120" y="460" width="200" height="140" as="geometry"/>
                </mxCell>
                <mxCell id="5" value="Caregiver&#xa;&#xa;Responsibilities:&#xa;- Patient Health Monitoring&#xa;- Vital Signs Recording&#xa;- Medication Schedule Management&#xa;- Status Reporting" style="rounded=1;whiteSpace=wrap;html=1;fillColor=#d5e8d4;strokeColor=#82b366;fontSize=12;align=left;spacingLeft=5" parent="1" vertex="1">
                    <mxGeometry x="800" y="200" width="200" height="140" as="geometry"/>
                </mxCell>
                <mxCell id="6" value="Notification Services" style="swimlane;fontStyle=0;childLayout=stackLayout;horizontal=1;startSize=30;horizontalStack=0;resizeParent=1;resizeParentMax=0;resizeLast=0;collapsible=1;marginBottom=0;fillColor=#fff2cc;strokeColor=#d6b656;" parent="1" vertex="1">
                    <mxGeometry x="800" y="460" width="200" height="140" as="geometry"/>
                </mxCell>
                <mxCell id="7" value="SMS Gateway (AT SMS)&#xa;- Medication Reminders&#xa;- Appointment Alerts" style="text;strokeColor=none;fillColor=none;align=left;verticalAlign=middle;spacingLeft=4;spacingRight=4;overflow=hidden;points=[[0,0.5],[1,0.5]];portConstraint=eastwest;rotatable=0;" parent="6" vertex="1">
                    <mxGeometry y="30" width="200" height="50" as="geometry"/>
                </mxCell>
                <mxCell id="8" value="Push Notifications&#xa;- Real-time Alerts&#xa;- System Updates" style="text;strokeColor=none;fillColor=none;align=left;verticalAlign=middle;spacingLeft=4;spacingRight=4;overflow=hidden;points=[[0,0.5],[1,0.5]];portConstraint=eastwest;rotatable=0;" parent="6" vertex="1">
                    <mxGeometry y="80" width="200" height="60" as="geometry"/>
                </mxCell>
                <mxCell id="9" value="Database Systems" style="swimlane;fontStyle=0;childLayout=stackLayout;horizontal=1;startSize=30;horizontalStack=0;resizeParent=1;resizeParentMax=0;resizeLast=0;collapsible=1;marginBottom=0;fillColor=#e1d5e7;strokeColor=#9673a6;" parent="1" vertex="1">
                    <mxGeometry x="460" y="600" width="200" height="170" as="geometry"/>
                </mxCell>
                <mxCell id="10" value="- User Profiles&#xa;- Medical Records&#xa;- Diagnoses&#xa;- Medications&#xa;- Health Vitals&#xa;- Side Effects&#xa;- Schedules&#xa;- Device Tokens&#xa;- System Settings" style="text;strokeColor=none;fillColor=none;align=left;verticalAlign=top;spacingLeft=4;spacingRight=4;overflow=hidden;points=[[0,0.5],[1,0.5]];portConstraint=eastwest;rotatable=0;" parent="9" vertex="1">
                    <mxGeometry y="30" width="200" height="140" as="geometry"/>
                </mxCell>
                <mxCell id="11" value="Security Layer" style="swimlane;fontStyle=0;childLayout=stackLayout;horizontal=1;startSize=30;horizontalStack=0;resizeParent=1;resizeParentMax=0;resizeLast=0;collapsible=1;marginBottom=0;fillColor=#f8cecc;strokeColor=#b85450;" parent="1" vertex="1">
                    <mxGeometry x="460" y="40" width="200" height="160" as="geometry"/>
                </mxCell>
                <mxCell id="12" value="- Sanctum Authentication&#xa;- Role-based Authorization&#xa;- API Security&#xa;- Data Encryption&#xa;- Session Management&#xa;- Access Control&#xa;- Secure Communications" style="text;strokeColor=none;fillColor=none;align=left;verticalAlign=top;spacingLeft=4;spacingRight=4;overflow=hidden;points=[[0,0.5],[1,0.5]];portConstraint=eastwest;rotatable=0;" parent="11" vertex="1">
                    <mxGeometry y="30" width="200" height="130" as="geometry"/>
                </mxCell>
                <mxCell id="13" value="Health Data Flow" style="endArrow=classic;startArrow=classic;html=1;exitX=1;exitY=0.5;entryX=0;entryY=0.3;curved=1;fontSize=10;" parent="1" source="3" target="2" edge="1">
                    <mxGeometry x="-0.1" y="10" relative="1" as="geometry">
                        <mxPoint as="offset"/>
                    </mxGeometry>
                </mxCell>
                <mxCell id="14" value="Medical Management" style="endArrow=classic;startArrow=classic;html=1;exitX=1;exitY=0.5;entryX=0;entryY=0.7;curved=1;fontSize=10;" parent="1" source="4" target="2" edge="1">
                    <mxGeometry x="-0.1" y="10" relative="1" as="geometry">
                        <mxPoint as="offset"/>
                    </mxGeometry>
                </mxCell>
                <mxCell id="15" value="Patient Care Data" style="endArrow=classic;startArrow=classic;html=1;exitX=0;exitY=0.5;entryX=1;entryY=0.3;curved=1;fontSize=10;" parent="1" source="5" target="2" edge="1">
                    <mxGeometry x="-0.1" y="10" relative="1" as="geometry">
                        <mxPoint as="offset"/>
                    </mxGeometry>
                </mxCell>
                <mxCell id="16" value="Alert System" style="endArrow=classic;startArrow=classic;html=1;exitX=0;exitY=0.5;entryX=1;entryY=0.7;curved=1;fontSize=10;" parent="1" source="6" target="2" edge="1">
                    <mxGeometry x="-0.1" y="10" relative="1" as="geometry">
                        <mxPoint as="offset"/>
                    </mxGeometry>
                </mxCell>
                <mxCell id="17" value="Data Operations" style="endArrow=classic;startArrow=classic;html=1;exitX=0.5;exitY=0;entryX=0.5;entryY=1;fontSize=10;" parent="1" source="9" target="2" edge="1">
                    <mxGeometry x="-0.1" y="10" relative="1" as="geometry">
                        <mxPoint as="offset"/>
                    </mxGeometry>
                </mxCell>
                <mxCell id="18" value="Security Controls" style="endArrow=classic;startArrow=classic;html=1;exitX=0.5;exitY=1;entryX=0.5;entryY=0;fontSize=10;" parent="1" source="11" target="2" edge="1">
                    <mxGeometry x="-0.1" y="10" relative="1" as="geometry">
                        <mxPoint as="offset"/>
                    </mxGeometry>
                </mxCell>
            </root>
        </mxGraphModel>
    </diagram>
</mxfile>